<svg width="384" height="60" viewBox="0 0 384 60" fill="none" xmlns="http://www.w3.org/2000/svg">
<g filter="url(#filter0_d_108_229)">
<rect x="8" width="368" height="40" rx="10" fill="#02A28F" shape-rendering="crispEdges"/>
<path d="M25.66 27V13H31.72C32.9733 13 34.0533 13.2067 34.96 13.62C35.8667 14.02 36.5667 14.6 37.06 15.36C37.5533 16.12 37.8 17.0267 37.8 18.08C37.8 19.12 37.5533 20.02 37.06 20.78C36.5667 21.54 35.8667 22.1267 34.96 22.54C34.0533 22.94 32.9733 23.14 31.72 23.14H27.46L28.9 21.68V27H25.66ZM28.9 22.04L27.46 20.5H31.54C32.54 20.5 33.2867 20.2867 33.78 19.86C34.2733 19.4333 34.52 18.84 34.52 18.08C34.52 17.3067 34.2733 16.7067 33.78 16.28C33.2867 15.8533 32.54 15.64 31.54 15.64H27.46L28.9 14.1V22.04ZM44.9936 27.16C43.8469 27.16 42.8269 26.92 41.9336 26.44C41.0536 25.96 40.3536 25.3067 39.8336 24.48C39.3269 23.64 39.0736 22.6867 39.0736 21.62C39.0736 20.54 39.3269 19.5867 39.8336 18.76C40.3536 17.92 41.0536 17.2667 41.9336 16.8C42.8269 16.32 43.8469 16.08 44.9936 16.08C46.1269 16.08 47.1403 16.32 48.0336 16.8C48.9269 17.2667 49.6269 17.9133 50.1336 18.74C50.6403 19.5667 50.8936 20.5267 50.8936 21.62C50.8936 22.6867 50.6403 23.64 50.1336 24.48C49.6269 25.3067 48.9269 25.96 48.0336 26.44C47.1403 26.92 46.1269 27.16 44.9936 27.16ZM44.9936 24.6C45.5136 24.6 45.9803 24.48 46.3936 24.24C46.8069 24 47.1336 23.66 47.3736 23.22C47.6136 22.7667 47.7336 22.2333 47.7336 21.62C47.7336 20.9933 47.6136 20.46 47.3736 20.02C47.1336 19.58 46.8069 19.24 46.3936 19C45.9803 18.76 45.5136 18.64 44.9936 18.64C44.4736 18.64 44.0069 18.76 43.5936 19C43.1803 19.24 42.8469 19.58 42.5936 20.02C42.3536 20.46 42.2336 20.9933 42.2336 21.62C42.2336 22.2333 42.3536 22.7667 42.5936 23.22C42.8469 23.66 43.1803 24 43.5936 24.24C44.0069 24.48 44.4736 24.6 44.9936 24.6ZM56.5991 27.16C55.6791 27.16 54.7924 27.0533 53.9391 26.84C53.0991 26.6133 52.4324 26.3333 51.9391 26L52.9791 23.76C53.4724 24.0667 54.0524 24.32 54.7191 24.52C55.3991 24.7067 56.0657 24.8 56.7191 24.8C57.4391 24.8 57.9457 24.7133 58.2391 24.54C58.5457 24.3667 58.6991 24.1267 58.6991 23.82C58.6991 23.5667 58.5791 23.38 58.3391 23.26C58.1124 23.1267 57.8057 23.0267 57.4191 22.96C57.0324 22.8933 56.6057 22.8267 56.1391 22.76C55.6857 22.6933 55.2257 22.6067 54.7591 22.5C54.2924 22.38 53.8657 22.2067 53.4791 21.98C53.0924 21.7533 52.7791 21.4467 52.5391 21.06C52.3124 20.6733 52.1991 20.1733 52.1991 19.56C52.1991 18.88 52.3924 18.28 52.7791 17.76C53.1791 17.24 53.7524 16.8333 54.4991 16.54C55.2457 16.2333 56.1391 16.08 57.1791 16.08C57.9124 16.08 58.6591 16.16 59.4191 16.32C60.1791 16.48 60.8124 16.7133 61.3191 17.02L60.2791 19.24C59.7591 18.9333 59.2324 18.7267 58.6991 18.62C58.1791 18.5 57.6724 18.44 57.1791 18.44C56.4857 18.44 55.9791 18.5333 55.6591 18.72C55.3391 18.9067 55.1791 19.1467 55.1791 19.44C55.1791 19.7067 55.2924 19.9067 55.5191 20.04C55.7591 20.1733 56.0724 20.28 56.4591 20.36C56.8457 20.44 57.2657 20.5133 57.7191 20.58C58.1857 20.6333 58.6524 20.72 59.1191 20.84C59.5857 20.96 60.0057 21.1333 60.3791 21.36C60.7657 21.5733 61.0791 21.8733 61.3191 22.26C61.5591 22.6333 61.6791 23.1267 61.6791 23.74C61.6791 24.4067 61.4791 25 61.0791 25.52C60.6791 26.0267 60.0991 26.4267 59.3391 26.72C58.5924 27.0133 57.6791 27.16 56.5991 27.16ZM68.0041 27.16C66.7374 27.16 65.7507 26.84 65.0441 26.2C64.3374 25.5467 63.9841 24.58 63.9841 23.3V13.86H67.1041V23.26C67.1041 23.7133 67.2241 24.0667 67.4641 24.32C67.7041 24.56 68.0307 24.68 68.4441 24.68C68.9374 24.68 69.3574 24.5467 69.7041 24.28L70.5441 26.48C70.2241 26.7067 69.8374 26.88 69.3841 27C68.9441 27.1067 68.4841 27.16 68.0041 27.16ZM62.3241 18.88V16.48H69.7841V18.88H62.3241ZM75.9155 27.16C74.9955 27.16 74.1088 27.0533 73.2555 26.84C72.4155 26.6133 71.7488 26.3333 71.2555 26L72.2955 23.76C72.7888 24.0667 73.3688 24.32 74.0355 24.52C74.7155 24.7067 75.3821 24.8 76.0355 24.8C76.7555 24.8 77.2621 24.7133 77.5555 24.54C77.8621 24.3667 78.0155 24.1267 78.0155 23.82C78.0155 23.5667 77.8955 23.38 77.6555 23.26C77.4288 23.1267 77.1221 23.0267 76.7355 22.96C76.3488 22.8933 75.9221 22.8267 75.4555 22.76C75.0021 22.6933 74.5421 22.6067 74.0755 22.5C73.6088 22.38 73.1821 22.2067 72.7955 21.98C72.4088 21.7533 72.0955 21.4467 71.8555 21.06C71.6288 20.6733 71.5155 20.1733 71.5155 19.56C71.5155 18.88 71.7088 18.28 72.0955 17.76C72.4955 17.24 73.0688 16.8333 73.8155 16.54C74.5621 16.2333 75.4555 16.08 76.4955 16.08C77.2288 16.08 77.9755 16.16 78.7355 16.32C79.4955 16.48 80.1288 16.7133 80.6355 17.02L79.5955 19.24C79.0755 18.9333 78.5488 18.7267 78.0155 18.62C77.4955 18.5 76.9888 18.44 76.4955 18.44C75.8021 18.44 75.2955 18.5333 74.9755 18.72C74.6555 18.9067 74.4955 19.1467 74.4955 19.44C74.4955 19.7067 74.6088 19.9067 74.8355 20.04C75.0755 20.1733 75.3888 20.28 75.7755 20.36C76.1621 20.44 76.5821 20.5133 77.0355 20.58C77.5021 20.6333 77.9688 20.72 78.4355 20.84C78.9021 20.96 79.3221 21.1333 79.6955 21.36C80.0821 21.5733 80.3955 21.8733 80.6355 22.26C80.8755 22.6333 80.9955 23.1267 80.9955 23.74C80.9955 24.4067 80.7955 25 80.3955 25.52C79.9955 26.0267 79.4155 26.4267 78.6555 26.72C77.9088 27.0133 76.9955 27.16 75.9155 27.16ZM102.365 16.08C103.218 16.08 103.971 16.2533 104.625 16.6C105.291 16.9333 105.811 17.4533 106.185 18.16C106.571 18.8533 106.765 19.7467 106.765 20.84V27H103.645V21.32C103.645 20.4533 103.465 19.8133 103.105 19.4C102.745 18.9867 102.238 18.78 101.585 18.78C101.131 18.78 100.725 18.8867 100.365 19.1C100.005 19.3 99.7245 19.6067 99.5245 20.02C99.3245 20.4333 99.2245 20.96 99.2245 21.6V27H96.1045V21.32C96.1045 20.4533 95.9245 19.8133 95.5645 19.4C95.2179 18.9867 94.7179 18.78 94.0645 18.78C93.6112 18.78 93.2045 18.8867 92.8445 19.1C92.4845 19.3 92.2045 19.6067 92.0045 20.02C91.8045 20.4333 91.7045 20.96 91.7045 21.6V27H88.5845V16.24H91.5645V19.18L91.0045 18.32C91.3779 17.5867 91.9045 17.0333 92.5845 16.66C93.2779 16.2733 94.0645 16.08 94.9445 16.08C95.9312 16.08 96.7912 16.3333 97.5245 16.84C98.2712 17.3333 98.7645 18.0933 99.0045 19.12L97.9045 18.82C98.2645 17.98 98.8379 17.3133 99.6245 16.82C100.425 16.3267 101.338 16.08 102.365 16.08ZM116.161 27V24.9L115.961 24.44V20.68C115.961 20.0133 115.754 19.4933 115.341 19.12C114.941 18.7467 114.321 18.56 113.481 18.56C112.908 18.56 112.341 18.6533 111.781 18.84C111.234 19.0133 110.768 19.2533 110.381 19.56L109.261 17.38C109.848 16.9667 110.554 16.6467 111.381 16.42C112.208 16.1933 113.048 16.08 113.901 16.08C115.541 16.08 116.814 16.4667 117.721 17.24C118.628 18.0133 119.081 19.22 119.081 20.86V27H116.161ZM112.881 27.16C112.041 27.16 111.321 27.02 110.721 26.74C110.121 26.4467 109.661 26.0533 109.341 25.56C109.021 25.0667 108.861 24.5133 108.861 23.9C108.861 23.26 109.014 22.7 109.321 22.22C109.641 21.74 110.141 21.3667 110.821 21.1C111.501 20.82 112.388 20.68 113.481 20.68H116.341V22.5H113.821C113.088 22.5 112.581 22.62 112.301 22.86C112.034 23.1 111.901 23.4 111.901 23.76C111.901 24.16 112.054 24.48 112.361 24.72C112.681 24.9467 113.114 25.06 113.661 25.06C114.181 25.06 114.648 24.94 115.061 24.7C115.474 24.4467 115.774 24.08 115.961 23.6L116.441 25.04C116.214 25.7333 115.801 26.26 115.201 26.62C114.601 26.98 113.828 27.16 112.881 27.16ZM121.905 27V16.24H125.025V27H121.905ZM123.465 14.74C122.892 14.74 122.425 14.5733 122.065 14.24C121.705 13.9067 121.525 13.4933 121.525 13C121.525 12.5067 121.705 12.0933 122.065 11.76C122.425 11.4267 122.892 11.26 123.465 11.26C124.038 11.26 124.505 11.42 124.865 11.74C125.225 12.0467 125.405 12.4467 125.405 12.94C125.405 13.46 125.225 13.8933 124.865 14.24C124.518 14.5733 124.052 14.74 123.465 14.74ZM131.54 27.16C130.62 27.16 129.734 27.0533 128.88 26.84C128.04 26.6133 127.374 26.3333 126.88 26L127.92 23.76C128.414 24.0667 128.994 24.32 129.66 24.52C130.34 24.7067 131.007 24.8 131.66 24.8C132.38 24.8 132.887 24.7133 133.18 24.54C133.487 24.3667 133.64 24.1267 133.64 23.82C133.64 23.5667 133.52 23.38 133.28 23.26C133.054 23.1267 132.747 23.0267 132.36 22.96C131.974 22.8933 131.547 22.8267 131.08 22.76C130.627 22.6933 130.167 22.6067 129.7 22.5C129.234 22.38 128.807 22.2067 128.42 21.98C128.034 21.7533 127.72 21.4467 127.48 21.06C127.254 20.6733 127.14 20.1733 127.14 19.56C127.14 18.88 127.334 18.28 127.72 17.76C128.12 17.24 128.694 16.8333 129.44 16.54C130.187 16.2333 131.08 16.08 132.12 16.08C132.854 16.08 133.6 16.16 134.36 16.32C135.12 16.48 135.754 16.7133 136.26 17.02L135.22 19.24C134.7 18.9333 134.174 18.7267 133.64 18.62C133.12 18.5 132.614 18.44 132.12 18.44C131.427 18.44 130.92 18.5333 130.6 18.72C130.28 18.9067 130.12 19.1467 130.12 19.44C130.12 19.7067 130.234 19.9067 130.46 20.04C130.7 20.1733 131.014 20.28 131.4 20.36C131.787 20.44 132.207 20.5133 132.66 20.58C133.127 20.6333 133.594 20.72 134.06 20.84C134.527 20.96 134.947 21.1333 135.32 21.36C135.707 21.5733 136.02 21.8733 136.26 22.26C136.5 22.6333 136.62 23.1267 136.62 23.74C136.62 24.4067 136.42 25 136.02 25.52C135.62 26.0267 135.04 26.4267 134.28 26.72C133.534 27.0133 132.62 27.16 131.54 27.16ZM144.21 27V16.24H147.19V19.28L146.77 18.4C147.09 17.64 147.603 17.0667 148.31 16.68C149.016 16.28 149.876 16.08 150.89 16.08V18.96C150.756 18.9467 150.636 18.94 150.53 18.94C150.423 18.9267 150.31 18.92 150.19 18.92C149.336 18.92 148.643 19.1667 148.11 19.66C147.59 20.14 147.33 20.8933 147.33 21.92V27H144.21ZM158.007 27.16C156.78 27.16 155.7 26.92 154.767 26.44C153.847 25.96 153.133 25.3067 152.627 24.48C152.12 23.64 151.867 22.6867 151.867 21.62C151.867 20.54 152.113 19.5867 152.607 18.76C153.113 17.92 153.8 17.2667 154.667 16.8C155.533 16.32 156.513 16.08 157.607 16.08C158.66 16.08 159.607 16.3067 160.447 16.76C161.3 17.2 161.973 17.84 162.467 18.68C162.96 19.5067 163.207 20.5 163.207 21.66C163.207 21.78 163.2 21.92 163.187 22.08C163.173 22.2267 163.16 22.3667 163.147 22.5H154.407V20.68H161.507L160.307 21.22C160.307 20.66 160.193 20.1733 159.967 19.76C159.74 19.3467 159.427 19.0267 159.027 18.8C158.627 18.56 158.16 18.44 157.627 18.44C157.093 18.44 156.62 18.56 156.207 18.8C155.807 19.0267 155.493 19.3533 155.267 19.78C155.04 20.1933 154.927 20.6867 154.927 21.26V21.74C154.927 22.3267 155.053 22.8467 155.307 23.3C155.573 23.74 155.94 24.08 156.407 24.32C156.887 24.5467 157.447 24.66 158.087 24.66C158.66 24.66 159.16 24.5733 159.587 24.4C160.027 24.2267 160.427 23.9667 160.787 23.62L162.447 25.42C161.953 25.98 161.333 26.4133 160.587 26.72C159.84 27.0133 158.98 27.16 158.007 27.16ZM170.484 27.16C169.324 27.16 168.29 26.9267 167.384 26.46C166.477 25.98 165.764 25.32 165.244 24.48C164.737 23.64 164.484 22.6867 164.484 21.62C164.484 20.54 164.737 19.5867 165.244 18.76C165.764 17.92 166.477 17.2667 167.384 16.8C168.29 16.32 169.324 16.08 170.484 16.08C171.617 16.08 172.604 16.32 173.444 16.8C174.284 17.2667 174.904 17.94 175.304 18.82L172.884 20.12C172.604 19.6133 172.25 19.24 171.824 19C171.41 18.76 170.957 18.64 170.464 18.64C169.93 18.64 169.45 18.76 169.024 19C168.597 19.24 168.257 19.58 168.004 20.02C167.764 20.46 167.644 20.9933 167.644 21.62C167.644 22.2467 167.764 22.78 168.004 23.22C168.257 23.66 168.597 24 169.024 24.24C169.45 24.48 169.93 24.6 170.464 24.6C170.957 24.6 171.41 24.4867 171.824 24.26C172.25 24.02 172.604 23.64 172.884 23.12L175.304 24.44C174.904 25.3067 174.284 25.98 173.444 26.46C172.604 26.9267 171.617 27.16 170.484 27.16ZM182.303 27.16C181.077 27.16 179.997 26.92 179.063 26.44C178.143 25.96 177.43 25.3067 176.923 24.48C176.417 23.64 176.163 22.6867 176.163 21.62C176.163 20.54 176.41 19.5867 176.903 18.76C177.41 17.92 178.097 17.2667 178.963 16.8C179.83 16.32 180.81 16.08 181.903 16.08C182.957 16.08 183.903 16.3067 184.743 16.76C185.597 17.2 186.27 17.84 186.763 18.68C187.257 19.5067 187.503 20.5 187.503 21.66C187.503 21.78 187.497 21.92 187.483 22.08C187.47 22.2267 187.457 22.3667 187.443 22.5H178.703V20.68H185.803L184.603 21.22C184.603 20.66 184.49 20.1733 184.263 19.76C184.037 19.3467 183.723 19.0267 183.323 18.8C182.923 18.56 182.457 18.44 181.923 18.44C181.39 18.44 180.917 18.56 180.503 18.8C180.103 19.0267 179.79 19.3533 179.563 19.78C179.337 20.1933 179.223 20.6867 179.223 21.26V21.74C179.223 22.3267 179.35 22.8467 179.603 23.3C179.87 23.74 180.237 24.08 180.703 24.32C181.183 24.5467 181.743 24.66 182.383 24.66C182.957 24.66 183.457 24.5733 183.883 24.4C184.323 24.2267 184.723 23.9667 185.083 23.62L186.743 25.42C186.25 25.98 185.63 26.4133 184.883 26.72C184.137 27.0133 183.277 27.16 182.303 27.16ZM196.121 16.08C196.974 16.08 197.734 16.2533 198.401 16.6C199.081 16.9333 199.614 17.4533 200.001 18.16C200.387 18.8533 200.581 19.7467 200.581 20.84V27H197.461V21.32C197.461 20.4533 197.267 19.8133 196.881 19.4C196.507 18.9867 195.974 18.78 195.281 18.78C194.787 18.78 194.341 18.8867 193.941 19.1C193.554 19.3 193.247 19.6133 193.021 20.04C192.807 20.4667 192.701 21.0133 192.701 21.68V27H189.581V16.24H192.561V19.22L192.001 18.32C192.387 17.6 192.941 17.0467 193.661 16.66C194.381 16.2733 195.201 16.08 196.121 16.08ZM207.809 27.16C206.542 27.16 205.555 26.84 204.849 26.2C204.142 25.5467 203.789 24.58 203.789 23.3V13.86H206.909V23.26C206.909 23.7133 207.029 24.0667 207.269 24.32C207.509 24.56 207.835 24.68 208.249 24.68C208.742 24.68 209.162 24.5467 209.509 24.28L210.349 26.48C210.029 26.7067 209.642 26.88 209.189 27C208.749 27.1067 208.289 27.16 207.809 27.16ZM202.129 18.88V16.48H209.589V18.88H202.129ZM217.108 27.16C215.881 27.16 214.801 26.92 213.868 26.44C212.948 25.96 212.235 25.3067 211.728 24.48C211.221 23.64 210.968 22.6867 210.968 21.62C210.968 20.54 211.215 19.5867 211.708 18.76C212.215 17.92 212.901 17.2667 213.768 16.8C214.635 16.32 215.615 16.08 216.708 16.08C217.761 16.08 218.708 16.3067 219.548 16.76C220.401 17.2 221.075 17.84 221.568 18.68C222.061 19.5067 222.308 20.5 222.308 21.66C222.308 21.78 222.301 21.92 222.288 22.08C222.275 22.2267 222.261 22.3667 222.248 22.5H213.508V20.68H220.608L219.408 21.22C219.408 20.66 219.295 20.1733 219.068 19.76C218.841 19.3467 218.528 19.0267 218.128 18.8C217.728 18.56 217.261 18.44 216.728 18.44C216.195 18.44 215.721 18.56 215.308 18.8C214.908 19.0267 214.595 19.3533 214.368 19.78C214.141 20.1933 214.028 20.6867 214.028 21.26V21.74C214.028 22.3267 214.155 22.8467 214.408 23.3C214.675 23.74 215.041 24.08 215.508 24.32C215.988 24.5467 216.548 24.66 217.188 24.66C217.761 24.66 218.261 24.5733 218.688 24.4C219.128 24.2267 219.528 23.9667 219.888 23.62L221.548 25.42C221.055 25.98 220.435 26.4133 219.688 26.72C218.941 27.0133 218.081 27.16 217.108 27.16ZM228.005 27.16C227.085 27.16 226.199 27.0533 225.345 26.84C224.505 26.6133 223.839 26.3333 223.345 26L224.385 23.76C224.879 24.0667 225.459 24.32 226.125 24.52C226.805 24.7067 227.472 24.8 228.125 24.8C228.845 24.8 229.352 24.7133 229.645 24.54C229.952 24.3667 230.105 24.1267 230.105 23.82C230.105 23.5667 229.985 23.38 229.745 23.26C229.519 23.1267 229.212 23.0267 228.825 22.96C228.439 22.8933 228.012 22.8267 227.545 22.76C227.092 22.6933 226.632 22.6067 226.165 22.5C225.699 22.38 225.272 22.2067 224.885 21.98C224.499 21.7533 224.185 21.4467 223.945 21.06C223.719 20.6733 223.605 20.1733 223.605 19.56C223.605 18.88 223.799 18.28 224.185 17.76C224.585 17.24 225.159 16.8333 225.905 16.54C226.652 16.2333 227.545 16.08 228.585 16.08C229.319 16.08 230.065 16.16 230.825 16.32C231.585 16.48 232.219 16.7133 232.725 17.02L231.685 19.24C231.165 18.9333 230.639 18.7267 230.105 18.62C229.585 18.5 229.079 18.44 228.585 18.44C227.892 18.44 227.385 18.5333 227.065 18.72C226.745 18.9067 226.585 19.1467 226.585 19.44C226.585 19.7067 226.699 19.9067 226.925 20.04C227.165 20.1733 227.479 20.28 227.865 20.36C228.252 20.44 228.672 20.5133 229.125 20.58C229.592 20.6333 230.059 20.72 230.525 20.84C230.992 20.96 231.412 21.1333 231.785 21.36C232.172 21.5733 232.485 21.8733 232.725 22.26C232.965 22.6333 233.085 23.1267 233.085 23.74C233.085 24.4067 232.885 25 232.485 25.52C232.085 26.0267 231.505 26.4267 230.745 26.72C229.999 27.0133 229.085 27.16 228.005 27.16Z" fill="white"/>
<path d="M296.298 25.5L291.986 15.7H293.498L297.46 24.744H296.592L300.582 15.7H301.982L297.684 25.5H296.298ZM305.779 25.584C304.986 25.584 304.286 25.4207 303.679 25.094C303.082 24.7673 302.615 24.3193 302.279 23.75C301.953 23.1807 301.789 22.5273 301.789 21.79C301.789 21.0527 301.948 20.3993 302.265 19.83C302.592 19.2607 303.035 18.8173 303.595 18.5C304.165 18.1733 304.804 18.01 305.513 18.01C306.232 18.01 306.867 18.1687 307.417 18.486C307.968 18.8033 308.397 19.2513 308.705 19.83C309.023 20.3993 309.181 21.0667 309.181 21.832C309.181 21.888 309.177 21.9533 309.167 22.028C309.167 22.1027 309.163 22.1727 309.153 22.238H302.839V21.272H308.453L307.907 21.608C307.917 21.132 307.819 20.7073 307.613 20.334C307.408 19.9607 307.123 19.6713 306.759 19.466C306.405 19.2513 305.989 19.144 305.513 19.144C305.047 19.144 304.631 19.2513 304.267 19.466C303.903 19.6713 303.619 19.9653 303.413 20.348C303.208 20.7213 303.105 21.1507 303.105 21.636V21.86C303.105 22.3547 303.217 22.798 303.441 23.19C303.675 23.5727 303.997 23.8713 304.407 24.086C304.818 24.3007 305.289 24.408 305.821 24.408C306.26 24.408 306.657 24.3333 307.011 24.184C307.375 24.0347 307.693 23.8107 307.963 23.512L308.705 24.38C308.369 24.772 307.949 25.0707 307.445 25.276C306.951 25.4813 306.395 25.584 305.779 25.584ZM311.047 25.5V18.08H312.335V20.096L312.209 19.592C312.415 19.0787 312.76 18.6867 313.245 18.416C313.731 18.1453 314.328 18.01 315.037 18.01V19.312C314.981 19.3027 314.925 19.298 314.869 19.298C314.823 19.298 314.776 19.298 314.729 19.298C314.011 19.298 313.441 19.5127 313.021 19.942C312.601 20.3713 312.391 20.992 312.391 21.804V25.5H311.047ZM323.097 25.584C322.351 25.584 321.772 25.3833 321.361 24.982C320.951 24.5807 320.745 24.0067 320.745 23.26V16.456H322.089V23.204C322.089 23.6053 322.187 23.9133 322.383 24.128C322.589 24.3427 322.878 24.45 323.251 24.45C323.671 24.45 324.021 24.3333 324.301 24.1L324.721 25.066C324.516 25.2433 324.269 25.374 323.979 25.458C323.699 25.542 323.405 25.584 323.097 25.584ZM319.485 19.186V18.08H324.217V19.186H319.485ZM329.278 25.584C328.532 25.584 327.869 25.4207 327.29 25.094C326.712 24.7673 326.254 24.3193 325.918 23.75C325.582 23.1713 325.414 22.518 325.414 21.79C325.414 21.0527 325.582 20.3993 325.918 19.83C326.254 19.2607 326.712 18.8173 327.29 18.5C327.869 18.1733 328.532 18.01 329.278 18.01C330.016 18.01 330.674 18.1733 331.252 18.5C331.84 18.8173 332.298 19.2607 332.624 19.83C332.96 20.39 333.128 21.0433 333.128 21.79C333.128 22.5273 332.96 23.1807 332.624 23.75C332.298 24.3193 331.84 24.7673 331.252 25.094C330.674 25.4207 330.016 25.584 329.278 25.584ZM329.278 24.408C329.754 24.408 330.179 24.3007 330.552 24.086C330.935 23.8713 331.234 23.568 331.448 23.176C331.663 22.7747 331.77 22.3127 331.77 21.79C331.77 21.258 331.663 20.8007 331.448 20.418C331.234 20.026 330.935 19.7227 330.552 19.508C330.179 19.2933 329.754 19.186 329.278 19.186C328.802 19.186 328.378 19.2933 328.004 19.508C327.631 19.7227 327.332 20.026 327.108 20.418C326.884 20.8007 326.772 21.258 326.772 21.79C326.772 22.3127 326.884 22.7747 327.108 23.176C327.332 23.568 327.631 23.8713 328.004 24.086C328.378 24.3007 328.802 24.408 329.278 24.408ZM338.053 25.584C337.334 25.584 336.69 25.4253 336.121 25.108C335.561 24.7907 335.118 24.3473 334.791 23.778C334.464 23.2087 334.301 22.546 334.301 21.79C334.301 21.034 334.464 20.376 334.791 19.816C335.118 19.2467 335.561 18.8033 336.121 18.486C336.69 18.1687 337.334 18.01 338.053 18.01C338.678 18.01 339.243 18.15 339.747 18.43C340.251 18.71 340.652 19.13 340.951 19.69C341.259 20.25 341.413 20.95 341.413 21.79C341.413 22.63 341.264 23.33 340.965 23.89C340.676 24.45 340.279 24.8747 339.775 25.164C339.271 25.444 338.697 25.584 338.053 25.584ZM338.165 24.408C338.632 24.408 339.052 24.3007 339.425 24.086C339.808 23.8713 340.106 23.568 340.321 23.176C340.545 22.7747 340.657 22.3127 340.657 21.79C340.657 21.258 340.545 20.8007 340.321 20.418C340.106 20.026 339.808 19.7227 339.425 19.508C339.052 19.2933 338.632 19.186 338.165 19.186C337.689 19.186 337.264 19.2933 336.891 19.508C336.518 19.7227 336.219 20.026 335.995 20.418C335.771 20.8007 335.659 21.258 335.659 21.79C335.659 22.3127 335.771 22.7747 335.995 23.176C336.219 23.568 336.518 23.8713 336.891 24.086C337.264 24.3007 337.689 24.408 338.165 24.408ZM340.699 25.5V23.498L340.783 21.776L340.643 20.054V15.112H341.987V25.5H340.699ZM347.708 25.584C346.961 25.584 346.299 25.4207 345.72 25.094C345.141 24.7673 344.684 24.3193 344.348 23.75C344.012 23.1713 343.844 22.518 343.844 21.79C343.844 21.0527 344.012 20.3993 344.348 19.83C344.684 19.2607 345.141 18.8173 345.72 18.5C346.299 18.1733 346.961 18.01 347.708 18.01C348.445 18.01 349.103 18.1733 349.682 18.5C350.27 18.8173 350.727 19.2607 351.054 19.83C351.39 20.39 351.558 21.0433 351.558 21.79C351.558 22.5273 351.39 23.1807 351.054 23.75C350.727 24.3193 350.27 24.7673 349.682 25.094C349.103 25.4207 348.445 25.584 347.708 25.584ZM347.708 24.408C348.184 24.408 348.609 24.3007 348.982 24.086C349.365 23.8713 349.663 23.568 349.878 23.176C350.093 22.7747 350.2 22.3127 350.2 21.79C350.2 21.258 350.093 20.8007 349.878 20.418C349.663 20.026 349.365 19.7227 348.982 19.508C348.609 19.2933 348.184 19.186 347.708 19.186C347.232 19.186 346.807 19.2933 346.434 19.508C346.061 19.7227 345.762 20.026 345.538 20.418C345.314 20.8007 345.202 21.258 345.202 21.79C345.202 22.3127 345.314 22.7747 345.538 23.176C345.762 23.568 346.061 23.8713 346.434 24.086C346.807 24.3007 347.232 24.408 347.708 24.408ZM355.545 25.584C354.929 25.584 354.341 25.5 353.781 25.332C353.23 25.164 352.796 24.9587 352.479 24.716L353.039 23.652C353.356 23.8667 353.748 24.0487 354.215 24.198C354.681 24.3473 355.157 24.422 355.643 24.422C356.268 24.422 356.716 24.3333 356.987 24.156C357.267 23.9787 357.407 23.7313 357.407 23.414C357.407 23.1807 357.323 22.9987 357.155 22.868C356.987 22.7373 356.763 22.6393 356.483 22.574C356.212 22.5087 355.909 22.4527 355.573 22.406C355.237 22.35 354.901 22.2847 354.565 22.21C354.229 22.126 353.921 22.014 353.641 21.874C353.361 21.7247 353.137 21.524 352.969 21.272C352.801 21.0107 352.717 20.6653 352.717 20.236C352.717 19.788 352.843 19.396 353.095 19.06C353.347 18.724 353.701 18.4673 354.159 18.29C354.625 18.1033 355.176 18.01 355.811 18.01C356.296 18.01 356.786 18.0707 357.281 18.192C357.785 18.304 358.195 18.4673 358.513 18.682L357.939 19.746C357.603 19.522 357.253 19.368 356.889 19.284C356.525 19.2 356.161 19.158 355.797 19.158C355.209 19.158 354.77 19.256 354.481 19.452C354.191 19.6387 354.047 19.8813 354.047 20.18C354.047 20.432 354.131 20.628 354.299 20.768C354.476 20.8987 354.7 21.0013 354.971 21.076C355.251 21.1507 355.559 21.216 355.895 21.272C356.231 21.3187 356.567 21.384 356.903 21.468C357.239 21.5427 357.542 21.65 357.813 21.79C358.093 21.93 358.317 22.126 358.485 22.378C358.662 22.63 358.751 22.966 358.751 23.386C358.751 23.834 358.62 24.2213 358.359 24.548C358.097 24.8747 357.729 25.1313 357.253 25.318C356.777 25.4953 356.207 25.584 355.545 25.584Z" fill="white"/>
<path d="M292 27.25H301.968V27.95H292V27.25ZM301.201 27.25H319.282V27.95H301.201V27.25ZM319.275 27.25H325.071V27.95H319.275V27.25ZM324.826 27.25H333.716V27.95H324.826V27.25ZM333.713 27.25H343.261V27.95H333.713V27.25ZM343.256 27.25H352.146V27.95H343.256V27.25ZM352.143 27.25H359.157V27.95H352.143V27.25Z" fill="white"/>
</g>
<defs>
<filter id="filter0_d_108_229" x="-2" y="0" width="388" height="60" filterUnits="userSpaceOnUse" color-interpolation-filters="sRGB">
<feFlood flood-opacity="0" result="BackgroundImageFix"/>
<feColorMatrix in="SourceAlpha" type="matrix" values="0 0 0 0 0 0 0 0 0 0 0 0 0 0 0 0 0 0 127 0" result="hardAlpha"/>
<feOffset dy="10"/>
<feGaussianBlur stdDeviation="5"/>
<feComposite in2="hardAlpha" operator="out"/>
<feColorMatrix type="matrix" values="0 0 0 0 0 0 0 0 0 0 0 0 0 0 0 0 0 0 0.1 0"/>
<feBlend mode="normal" in2="BackgroundImageFix" result="effect1_dropShadow_108_229"/>
<feBlend mode="normal" in="SourceGraphic" in2="effect1_dropShadow_108_229" result="shape"/>
</filter>
</defs>
</svg>
